<mxfile host="Electron" modified="2024-05-03T08:17:56.428Z" agent="Mozilla/5.0 (Windows NT 10.0; Win64; x64) AppleWebKit/537.36 (KHTML, like Gecko) draw.io/24.2.5 Chrome/120.0.6099.109 Electron/28.1.0 Safari/537.36" etag="pR495Bzyyo3zX1xt4LX2" version="24.2.5" type="device" pages="4">
  <diagram name="Require" id="0D8QAdTb2SCwNCHoiwue">
    <mxGraphModel dx="1434" dy="836" grid="1" gridSize="10" guides="1" tooltips="1" connect="1" arrows="1" fold="1" page="1" pageScale="1" pageWidth="827" pageHeight="1169" math="0" shadow="0">
      <root>
        <mxCell id="0" />
        <mxCell id="1" parent="0" />
        <mxCell id="gEsSYRUnvXa0ltDkOcUT-1" value="&lt;div style=&quot;background-color: rgb(255, 255, 255); font-family: Consolas, &amp;quot;Courier New&amp;quot;, monospace; font-size: 14px; line-height: 19px; white-space: pre;&quot;&gt;&lt;div&gt;&lt;span style=&quot;color: #0000ff;&quot;&gt;require&lt;/span&gt; &lt;span style=&quot;color: #a31515;&quot;&gt;&quot;lib/myLibrary.php&quot;&lt;/span&gt;;&lt;/div&gt;&lt;br&gt;&lt;div&gt;helloWorld();&lt;/div&gt;&lt;/div&gt;" style="rounded=0;whiteSpace=wrap;html=1;align=left;verticalAlign=top;" parent="1" vertex="1">
          <mxGeometry x="40" y="80" width="240" height="80" as="geometry" />
        </mxCell>
        <mxCell id="gEsSYRUnvXa0ltDkOcUT-2" value="sampleRequire.php" style="text;html=1;align=left;verticalAlign=middle;whiteSpace=wrap;rounded=0;" parent="1" vertex="1">
          <mxGeometry x="40" y="40" width="240" height="40" as="geometry" />
        </mxCell>
        <mxCell id="gEsSYRUnvXa0ltDkOcUT-6" value="&lt;div style=&quot;background-color: rgb(255, 255, 255); font-family: Consolas, &amp;quot;Courier New&amp;quot;, monospace; font-size: 14px; line-height: 19px; white-space: pre;&quot;&gt;&lt;div style=&quot;line-height: 19px;&quot;&gt;&lt;div&gt;&lt;span style=&quot;color: #0000ff;&quot;&gt;function&lt;/span&gt; helloWorld()&lt;/div&gt;&lt;div&gt;{&lt;/div&gt;&lt;div&gt;&amp;nbsp; &amp;nbsp; echo &lt;span style=&quot;color: #a31515;&quot;&gt;&quot;Hello World\n&quot;&lt;/span&gt;;&lt;/div&gt;&lt;div&gt;}&lt;/div&gt;&lt;/div&gt;&lt;/div&gt;" style="rounded=0;whiteSpace=wrap;html=1;align=left;verticalAlign=top;" parent="1" vertex="1">
          <mxGeometry x="400" y="80" width="240" height="100" as="geometry" />
        </mxCell>
        <mxCell id="gEsSYRUnvXa0ltDkOcUT-7" value="lib/myLibrary.php" style="text;html=1;align=left;verticalAlign=middle;whiteSpace=wrap;rounded=0;" parent="1" vertex="1">
          <mxGeometry x="400" y="40" width="240" height="40" as="geometry" />
        </mxCell>
        <mxCell id="gEsSYRUnvXa0ltDkOcUT-8" value="" style="html=1;shadow=0;dashed=0;align=center;verticalAlign=middle;shape=mxgraph.arrows2.arrow;dy=0.6;dx=40;flipH=1;notch=0;" parent="1" vertex="1">
          <mxGeometry x="260" y="90" width="140" height="20" as="geometry" />
        </mxCell>
      </root>
    </mxGraphModel>
  </diagram>
  <diagram id="hqK4PqSD0ap7aITmlsyi" name="Dependency">
    <mxGraphModel dx="1434" dy="836" grid="1" gridSize="10" guides="1" tooltips="1" connect="1" arrows="1" fold="1" page="1" pageScale="1" pageWidth="827" pageHeight="1169" math="0" shadow="0">
      <root>
        <mxCell id="0" />
        <mxCell id="1" parent="0" />
        <mxCell id="BqSB2_Lh9qhuoGU7GKAm-1" value="Package A" style="rounded=0;whiteSpace=wrap;html=1;" parent="1" vertex="1">
          <mxGeometry x="40" y="120" width="120" height="40" as="geometry" />
        </mxCell>
        <mxCell id="BqSB2_Lh9qhuoGU7GKAm-2" value="Package B" style="rounded=0;whiteSpace=wrap;html=1;" parent="1" vertex="1">
          <mxGeometry x="280" y="40" width="120" height="40" as="geometry" />
        </mxCell>
        <mxCell id="BqSB2_Lh9qhuoGU7GKAm-16" value="require" style="edgeStyle=orthogonalEdgeStyle;rounded=0;orthogonalLoop=1;jettySize=auto;html=1;entryX=0.5;entryY=0;entryDx=0;entryDy=0;" parent="1" source="BqSB2_Lh9qhuoGU7GKAm-3" target="BqSB2_Lh9qhuoGU7GKAm-4" edge="1">
          <mxGeometry relative="1" as="geometry" />
        </mxCell>
        <mxCell id="BqSB2_Lh9qhuoGU7GKAm-3" value="Package X" style="rounded=0;whiteSpace=wrap;html=1;" parent="1" vertex="1">
          <mxGeometry x="520" y="40" width="120" height="40" as="geometry" />
        </mxCell>
        <mxCell id="BqSB2_Lh9qhuoGU7GKAm-4" value="Package Y" style="rounded=0;whiteSpace=wrap;html=1;" parent="1" vertex="1">
          <mxGeometry x="520" y="120" width="120" height="40" as="geometry" />
        </mxCell>
        <mxCell id="BqSB2_Lh9qhuoGU7GKAm-5" value="Package Z" style="rounded=0;whiteSpace=wrap;html=1;" parent="1" vertex="1">
          <mxGeometry x="520" y="200" width="120" height="40" as="geometry" />
        </mxCell>
        <mxCell id="BqSB2_Lh9qhuoGU7GKAm-14" value="require" style="edgeStyle=orthogonalEdgeStyle;rounded=0;orthogonalLoop=1;jettySize=auto;html=1;entryX=0.5;entryY=0;entryDx=0;entryDy=0;" parent="1" source="BqSB2_Lh9qhuoGU7GKAm-6" target="BqSB2_Lh9qhuoGU7GKAm-7" edge="1">
          <mxGeometry relative="1" as="geometry" />
        </mxCell>
        <mxCell id="BqSB2_Lh9qhuoGU7GKAm-6" value="Package C" style="rounded=0;whiteSpace=wrap;html=1;" parent="1" vertex="1">
          <mxGeometry x="280" y="120" width="120" height="40" as="geometry" />
        </mxCell>
        <mxCell id="BqSB2_Lh9qhuoGU7GKAm-7" value="Package D" style="rounded=0;whiteSpace=wrap;html=1;" parent="1" vertex="1">
          <mxGeometry x="280" y="200" width="120" height="40" as="geometry" />
        </mxCell>
        <mxCell id="BqSB2_Lh9qhuoGU7GKAm-8" value="require" style="endArrow=open;html=1;rounded=0;exitX=1;exitY=0.5;exitDx=0;exitDy=0;entryX=0;entryY=0.5;entryDx=0;entryDy=0;endFill=0;" parent="1" source="BqSB2_Lh9qhuoGU7GKAm-1" target="BqSB2_Lh9qhuoGU7GKAm-2" edge="1">
          <mxGeometry width="50" height="50" relative="1" as="geometry">
            <mxPoint x="390" y="350" as="sourcePoint" />
            <mxPoint x="440" y="300" as="targetPoint" />
          </mxGeometry>
        </mxCell>
        <mxCell id="BqSB2_Lh9qhuoGU7GKAm-9" value="require" style="endArrow=open;html=1;rounded=0;exitX=1;exitY=0.5;exitDx=0;exitDy=0;entryX=0;entryY=0.5;entryDx=0;entryDy=0;endFill=0;" parent="1" source="BqSB2_Lh9qhuoGU7GKAm-1" target="BqSB2_Lh9qhuoGU7GKAm-6" edge="1">
          <mxGeometry width="50" height="50" relative="1" as="geometry">
            <mxPoint x="170" y="150" as="sourcePoint" />
            <mxPoint x="290" y="70" as="targetPoint" />
          </mxGeometry>
        </mxCell>
        <mxCell id="BqSB2_Lh9qhuoGU7GKAm-10" value="require" style="endArrow=open;html=1;rounded=0;exitX=1;exitY=0.25;exitDx=0;exitDy=0;entryX=0;entryY=0.25;entryDx=0;entryDy=0;endFill=0;" parent="1" source="BqSB2_Lh9qhuoGU7GKAm-2" target="BqSB2_Lh9qhuoGU7GKAm-3" edge="1">
          <mxGeometry width="50" height="50" relative="1" as="geometry">
            <mxPoint x="170" y="150" as="sourcePoint" />
            <mxPoint x="290" y="70" as="targetPoint" />
          </mxGeometry>
        </mxCell>
        <mxCell id="BqSB2_Lh9qhuoGU7GKAm-11" value="require" style="endArrow=open;html=1;rounded=0;exitX=1;exitY=0.75;exitDx=0;exitDy=0;entryX=0;entryY=0.5;entryDx=0;entryDy=0;endFill=0;" parent="1" source="BqSB2_Lh9qhuoGU7GKAm-2" target="BqSB2_Lh9qhuoGU7GKAm-5" edge="1">
          <mxGeometry width="50" height="50" relative="1" as="geometry">
            <mxPoint x="410" y="70" as="sourcePoint" />
            <mxPoint x="530" y="70" as="targetPoint" />
          </mxGeometry>
        </mxCell>
        <mxCell id="BqSB2_Lh9qhuoGU7GKAm-12" value="require" style="endArrow=open;html=1;rounded=0;exitX=1;exitY=0.25;exitDx=0;exitDy=0;entryX=0;entryY=0.75;entryDx=0;entryDy=0;endFill=0;" parent="1" source="BqSB2_Lh9qhuoGU7GKAm-6" target="BqSB2_Lh9qhuoGU7GKAm-3" edge="1">
          <mxGeometry width="50" height="50" relative="1" as="geometry">
            <mxPoint x="410" y="70" as="sourcePoint" />
            <mxPoint x="530" y="230" as="targetPoint" />
          </mxGeometry>
        </mxCell>
        <mxCell id="BqSB2_Lh9qhuoGU7GKAm-13" value="require" style="endArrow=open;html=1;rounded=0;endFill=0;exitX=1;exitY=0.75;exitDx=0;exitDy=0;" parent="1" source="BqSB2_Lh9qhuoGU7GKAm-6" edge="1">
          <mxGeometry width="50" height="50" relative="1" as="geometry">
            <mxPoint x="400" y="140" as="sourcePoint" />
            <mxPoint x="520" y="220" as="targetPoint" />
          </mxGeometry>
        </mxCell>
        <mxCell id="BqSB2_Lh9qhuoGU7GKAm-15" value="require" style="endArrow=open;html=1;rounded=0;endFill=0;exitX=1;exitY=0.25;exitDx=0;exitDy=0;entryX=0;entryY=0.25;entryDx=0;entryDy=0;" parent="1" source="BqSB2_Lh9qhuoGU7GKAm-7" target="BqSB2_Lh9qhuoGU7GKAm-4" edge="1">
          <mxGeometry width="50" height="50" relative="1" as="geometry">
            <mxPoint x="410" y="150" as="sourcePoint" />
            <mxPoint x="530" y="230" as="targetPoint" />
          </mxGeometry>
        </mxCell>
        <mxCell id="BqSB2_Lh9qhuoGU7GKAm-17" value="require" style="endArrow=open;html=1;rounded=0;endFill=0;entryX=1;entryY=0.75;entryDx=0;entryDy=0;exitX=0;exitY=0.75;exitDx=0;exitDy=0;" parent="1" source="BqSB2_Lh9qhuoGU7GKAm-5" target="BqSB2_Lh9qhuoGU7GKAm-7" edge="1">
          <mxGeometry width="50" height="50" relative="1" as="geometry">
            <mxPoint x="410" y="150" as="sourcePoint" />
            <mxPoint x="530" y="230" as="targetPoint" />
          </mxGeometry>
        </mxCell>
      </root>
    </mxGraphModel>
  </diagram>
  <diagram id="5qymzyjcnZfShBD7J8yE" name="package-php">
    <mxGraphModel dx="1434" dy="836" grid="1" gridSize="10" guides="1" tooltips="1" connect="1" arrows="1" fold="1" page="1" pageScale="1" pageWidth="827" pageHeight="1169" math="0" shadow="0">
      <root>
        <mxCell id="0" />
        <mxCell id="1" parent="0" />
        <mxCell id="OEzy2P9OoRSOZgoKTsx5-1" value="package-php" style="rounded=0;whiteSpace=wrap;html=1;dashed=1;verticalAlign=top;fillColor=#ffe6cc;strokeColor=#d79b00;" parent="1" vertex="1">
          <mxGeometry x="40" y="40" width="300" height="260" as="geometry" />
        </mxCell>
        <mxCell id="OEzy2P9OoRSOZgoKTsx5-10" value="src/samplePackagePhpDev.php" style="rounded=0;whiteSpace=wrap;html=1;align=left;" parent="1" vertex="1">
          <mxGeometry x="60" y="80" width="220" height="20" as="geometry" />
        </mxCell>
        <mxCell id="OEzy2P9OoRSOZgoKTsx5-11" value="src/composer.json" style="rounded=0;whiteSpace=wrap;html=1;align=left;" parent="1" vertex="1">
          <mxGeometry x="60" y="110" width="220" height="20" as="geometry" />
        </mxCell>
        <mxCell id="OEzy2P9OoRSOZgoKTsx5-13" value="src/vendor" style="rounded=0;whiteSpace=wrap;html=1;align=left;verticalAlign=top;" parent="1" vertex="1">
          <mxGeometry x="60" y="140" width="260" height="140" as="geometry" />
        </mxCell>
        <mxCell id="OEzy2P9OoRSOZgoKTsx5-14" value="autoload.php" style="rounded=0;whiteSpace=wrap;html=1;align=left;" parent="1" vertex="1">
          <mxGeometry x="85" y="170" width="215" height="20" as="geometry" />
        </mxCell>
        <mxCell id="OEzy2P9OoRSOZgoKTsx5-15" value="composer" style="rounded=0;whiteSpace=wrap;html=1;align=left;" parent="1" vertex="1">
          <mxGeometry x="85" y="200" width="215" height="20" as="geometry" />
        </mxCell>
        <mxCell id="OEzy2P9OoRSOZgoKTsx5-16" value="umbalaconmeogia/package-php-dev" style="rounded=0;whiteSpace=wrap;html=1;align=left;" parent="1" vertex="1">
          <mxGeometry x="85" y="230" width="215" height="20" as="geometry" />
        </mxCell>
        <mxCell id="OEzy2P9OoRSOZgoKTsx5-17" value="package-php-dev" style="rounded=0;whiteSpace=wrap;html=1;dashed=1;verticalAlign=top;fillColor=#dae8fc;strokeColor=#6c8ebf;" parent="1" vertex="1">
          <mxGeometry x="440" y="140" width="300" height="160" as="geometry" />
        </mxCell>
        <mxCell id="OEzy2P9OoRSOZgoKTsx5-19" value="src" style="rounded=0;whiteSpace=wrap;html=1;align=left;verticalAlign=top;" parent="1" vertex="1">
          <mxGeometry x="460" y="210" width="260" height="60" as="geometry" />
        </mxCell>
        <mxCell id="OEzy2P9OoRSOZgoKTsx5-20" value="MyLibrary2.php" style="rounded=0;whiteSpace=wrap;html=1;align=left;" parent="1" vertex="1">
          <mxGeometry x="482.5" y="240" width="215" height="20" as="geometry" />
        </mxCell>
        <mxCell id="OEzy2P9OoRSOZgoKTsx5-21" value="composer.json" style="rounded=0;whiteSpace=wrap;html=1;align=left;" parent="1" vertex="1">
          <mxGeometry x="460" y="180" width="220" height="20" as="geometry" />
        </mxCell>
        <mxCell id="xNGxQ5cauvIgy3Pv9q0E-1" value="" style="html=1;shadow=0;dashed=0;align=center;verticalAlign=middle;shape=mxgraph.arrows2.arrow;dy=0.6;dx=40;flipH=1;notch=0;" parent="1" vertex="1">
          <mxGeometry x="300" y="230" width="140" height="20" as="geometry" />
        </mxCell>
      </root>
    </mxGraphModel>
  </diagram>
  <diagram name="DevCycle" id="gNuvXXiWN5DsNawFxvxj">
    <mxGraphModel dx="1434" dy="836" grid="1" gridSize="10" guides="1" tooltips="1" connect="1" arrows="1" fold="1" page="1" pageScale="1" pageWidth="827" pageHeight="1169" math="0" shadow="0">
      <root>
        <mxCell id="s2Q4l4Bj1lQFYsFmAgVf-0" />
        <mxCell id="s2Q4l4Bj1lQFYsFmAgVf-1" parent="s2Q4l4Bj1lQFYsFmAgVf-0" />
        <mxCell id="U91a8aiaYyD7HsfwmFCU-1" value="Internet" style="rounded=0;whiteSpace=wrap;html=1;dashed=1;verticalAlign=top;" vertex="1" parent="s2Q4l4Bj1lQFYsFmAgVf-1">
          <mxGeometry x="440" y="40" width="240" height="440" as="geometry" />
        </mxCell>
        <mxCell id="U91a8aiaYyD7HsfwmFCU-0" value="Local PC" style="rounded=0;whiteSpace=wrap;html=1;dashed=1;verticalAlign=top;" vertex="1" parent="s2Q4l4Bj1lQFYsFmAgVf-1">
          <mxGeometry x="40" y="40" width="280" height="440" as="geometry" />
        </mxCell>
        <mxCell id="s2Q4l4Bj1lQFYsFmAgVf-2" value="Chương trình thực thi" style="rounded=0;whiteSpace=wrap;html=1;dashed=1;verticalAlign=top;fillColor=#ffe6cc;strokeColor=#d79b00;" vertex="1" parent="s2Q4l4Bj1lQFYsFmAgVf-1">
          <mxGeometry x="80" y="80" width="220" height="180" as="geometry" />
        </mxCell>
        <mxCell id="s2Q4l4Bj1lQFYsFmAgVf-4" value="composer.json" style="rounded=0;whiteSpace=wrap;html=1;align=left;" vertex="1" parent="s2Q4l4Bj1lQFYsFmAgVf-1">
          <mxGeometry x="100" y="120" width="140" height="20" as="geometry" />
        </mxCell>
        <mxCell id="s2Q4l4Bj1lQFYsFmAgVf-5" value="vendor" style="rounded=0;whiteSpace=wrap;html=1;align=left;verticalAlign=top;" vertex="1" parent="s2Q4l4Bj1lQFYsFmAgVf-1">
          <mxGeometry x="100" y="150" width="180" height="90" as="geometry" />
        </mxCell>
        <mxCell id="s2Q4l4Bj1lQFYsFmAgVf-6" value="autoload.php" style="rounded=0;whiteSpace=wrap;html=1;align=left;" vertex="1" parent="s2Q4l4Bj1lQFYsFmAgVf-1">
          <mxGeometry x="125" y="180" width="115" height="20" as="geometry" />
        </mxCell>
        <mxCell id="s2Q4l4Bj1lQFYsFmAgVf-8" value="required-package" style="rounded=0;whiteSpace=wrap;html=1;align=left;" vertex="1" parent="s2Q4l4Bj1lQFYsFmAgVf-1">
          <mxGeometry x="125" y="210" width="115" height="20" as="geometry" />
        </mxCell>
        <mxCell id="KjVH-CQq3qMvjSCtkG2u-0" value="" style="group" vertex="1" connectable="0" parent="s2Q4l4Bj1lQFYsFmAgVf-1">
          <mxGeometry x="460" y="320" width="180" height="110" as="geometry" />
        </mxCell>
        <mxCell id="s2Q4l4Bj1lQFYsFmAgVf-9" value="required-package" style="rounded=0;whiteSpace=wrap;html=1;dashed=1;verticalAlign=top;fillColor=#dae8fc;strokeColor=#6c8ebf;" vertex="1" parent="KjVH-CQq3qMvjSCtkG2u-0">
          <mxGeometry width="180" height="110" as="geometry" />
        </mxCell>
        <mxCell id="s2Q4l4Bj1lQFYsFmAgVf-10" value="src" style="rounded=0;whiteSpace=wrap;html=1;align=left;verticalAlign=top;" vertex="1" parent="KjVH-CQq3qMvjSCtkG2u-0">
          <mxGeometry x="20" y="70" width="140" height="20" as="geometry" />
        </mxCell>
        <mxCell id="s2Q4l4Bj1lQFYsFmAgVf-12" value="composer.json" style="rounded=0;whiteSpace=wrap;html=1;align=left;" vertex="1" parent="KjVH-CQq3qMvjSCtkG2u-0">
          <mxGeometry x="20" y="40" width="140" height="20" as="geometry" />
        </mxCell>
        <mxCell id="KjVH-CQq3qMvjSCtkG2u-1" value="" style="group" vertex="1" connectable="0" parent="s2Q4l4Bj1lQFYsFmAgVf-1">
          <mxGeometry x="92.5" y="320" width="180" height="110" as="geometry" />
        </mxCell>
        <mxCell id="KjVH-CQq3qMvjSCtkG2u-2" value="required-package" style="rounded=0;whiteSpace=wrap;html=1;dashed=1;verticalAlign=top;fillColor=#dae8fc;strokeColor=#6c8ebf;" vertex="1" parent="KjVH-CQq3qMvjSCtkG2u-1">
          <mxGeometry width="180" height="110" as="geometry" />
        </mxCell>
        <mxCell id="KjVH-CQq3qMvjSCtkG2u-3" value="src" style="rounded=0;whiteSpace=wrap;html=1;align=left;verticalAlign=top;" vertex="1" parent="KjVH-CQq3qMvjSCtkG2u-1">
          <mxGeometry x="20" y="70" width="140" height="20" as="geometry" />
        </mxCell>
        <mxCell id="KjVH-CQq3qMvjSCtkG2u-4" value="composer.json" style="rounded=0;whiteSpace=wrap;html=1;align=left;" vertex="1" parent="KjVH-CQq3qMvjSCtkG2u-1">
          <mxGeometry x="20" y="40" width="140" height="20" as="geometry" />
        </mxCell>
        <mxCell id="KjVH-CQq3qMvjSCtkG2u-5" value="Packagist" style="rounded=0;whiteSpace=wrap;html=1;" vertex="1" parent="s2Q4l4Bj1lQFYsFmAgVf-1">
          <mxGeometry x="460" y="80" width="180" height="40" as="geometry" />
        </mxCell>
        <mxCell id="KjVH-CQq3qMvjSCtkG2u-7" value="① Code on Local PC" style="endArrow=classic;html=1;rounded=0;entryX=0.5;entryY=1;entryDx=0;entryDy=0;exitX=0.5;exitY=0;exitDx=0;exitDy=0;" edge="1" parent="s2Q4l4Bj1lQFYsFmAgVf-1" source="KjVH-CQq3qMvjSCtkG2u-2" target="s2Q4l4Bj1lQFYsFmAgVf-8">
          <mxGeometry width="50" height="50" relative="1" as="geometry">
            <mxPoint x="390" y="350" as="sourcePoint" />
            <mxPoint x="440" y="300" as="targetPoint" />
          </mxGeometry>
        </mxCell>
        <mxCell id="KjVH-CQq3qMvjSCtkG2u-9" value="2.1 Download from online repo" style="edgeStyle=orthogonalEdgeStyle;rounded=0;orthogonalLoop=1;jettySize=auto;html=1;entryX=1;entryY=0.5;entryDx=0;entryDy=0;exitX=0.25;exitY=0;exitDx=0;exitDy=0;" edge="1" parent="s2Q4l4Bj1lQFYsFmAgVf-1" source="s2Q4l4Bj1lQFYsFmAgVf-9" target="s2Q4l4Bj1lQFYsFmAgVf-8">
          <mxGeometry relative="1" as="geometry">
            <Array as="points">
              <mxPoint x="505" y="220" />
            </Array>
          </mxGeometry>
        </mxCell>
        <mxCell id="KjVH-CQq3qMvjSCtkG2u-11" value="③ Public on Packagist" style="edgeStyle=orthogonalEdgeStyle;rounded=0;orthogonalLoop=1;jettySize=auto;html=1;entryX=0.75;entryY=1;entryDx=0;entryDy=0;exitX=0.75;exitY=0;exitDx=0;exitDy=0;" edge="1" parent="s2Q4l4Bj1lQFYsFmAgVf-1" source="s2Q4l4Bj1lQFYsFmAgVf-9" target="KjVH-CQq3qMvjSCtkG2u-5">
          <mxGeometry relative="1" as="geometry" />
        </mxCell>
        <mxCell id="KjVH-CQq3qMvjSCtkG2u-12" value="② Push to online repository" style="edgeStyle=orthogonalEdgeStyle;rounded=0;orthogonalLoop=1;jettySize=auto;html=1;" edge="1" parent="s2Q4l4Bj1lQFYsFmAgVf-1" source="KjVH-CQq3qMvjSCtkG2u-2" target="s2Q4l4Bj1lQFYsFmAgVf-9">
          <mxGeometry relative="1" as="geometry" />
        </mxCell>
      </root>
    </mxGraphModel>
  </diagram>
</mxfile>
